# xmcd
# 
# Track frame offsets:
#     150
#     24652
#     38997
#     52017
#     69510
#     84760
#     101535
#     119752
#     137435
#     160470
#     173884
#     188809
# 
# Disc length: 2709
# 
# Revision: 2
# Processed by: cddbd v1.5.2PL0 Copyright (c) Steve Scherf et al.
# Submitted via: BonkEnc v1.0
# 
DISCID=a10a930c
DTITLE=Various Artist - T.M.UNUTULMAYAN ALTIN SARKILAR 7
DYEAR=0
DGENRE=Country
TTITLE0=AZIZ ISTANBUL
TTITLE1=GECENIN MATEMINI
TTITLE2=NE DEMISTIN NICIN CAYDIN
TTITLE3=DERMAN KAR EYLEMEZ
TTITLE4=EY IPEK KANATLI
TTITLE5=YAR SACLARI LULELULE
TTITLE6=YUZUM SEN HATIRAM SEN
TTITLE7=UNUT BENI KALBIMDEKI
TTITLE8=GIRDIM YARIN BAHCESINE (KEMENCE)
TTITLE9=BU YILDA BOYLE GECTI
TTITLE10=BENI CANIMDAN AYIRDI
TTITLE11=BEN GUZELE GUZEL DEMEM
EXTD=T.M.UNUTULMAYAN ALTIN SARKILAR 7
EXTT0=
EXTT1=
EXTT2=
EXTT3=
EXTT4=
EXTT5=
EXTT6=
EXTT7=
EXTT8=
EXTT9=
EXTT10=
EXTT11=
PLAYORDER=
